<?xml version="1.0"?>
<svg width="1192" height="1280" xmlns="http://www.w3.org/2000/svg" xmlns:svg="http://www.w3.org/2000/svg" preserveAspectRatio="xMidYMid meet">
 <metadata>Created by potrace 1.15, written by Peter Selinger 2001-2017</metadata>
 <g class="layer">
  <title>Layer 1</title>
  <g fill="#000000" id="svg_1" transform="translate(0 1280) scale(0.1 -0.1)">
   <path d="m7001,12844c-79,-11 -122,-23 -176,-49c-121,-58 -255,-153 -346,-244c-105,-106 -150,-190 -178,-331c-10,-52 -31,-124 -45,-159c-26,-60 -27,-70 -25,-215c3,-164 3,-165 -58,-245c-20,-25 -45,-65 -56,-88l-21,-43l22,-27c52,-66 54,-76 41,-193c-12,-103 -11,-110 9,-158c26,-60 29,-152 7,-205c-8,-19 -33,-57 -56,-84c-47,-53 -78,-115 -79,-153c0,-14 -13,-50 -29,-80c-15,-30 -31,-76 -34,-101c-9,-68 -101,-338 -159,-465c-10,-22 -18,-47 -18,-56c0,-8 -21,-59 -46,-114c-58,-124 -100,-232 -120,-309c-9,-33 -35,-91 -58,-130c-328,-540 -364,-595 -405,-617c-55,-30 -295,-4 -584,62c-203,47 -660,178 -805,230c-112,41 -149,61 -245,128c-228,162 -296,190 -475,199c-97,5 -115,3 -131,-11c-11,-10 -88,-52 -173,-95c-84,-42 -257,-136 -384,-209c-128,-73 -239,-132 -249,-132c-28,0 -50,16 -212,155c-86,74 -159,135 -162,135c-3,0 -46,-34 -96,-76c-122,-103 -219,-172 -283,-200c-28,-13 -109,-64 -180,-113c-70,-49 -235,-159 -367,-244c-132,-85 -253,-166 -270,-180c-16,-13 -50,-34 -75,-47c-25,-12 -65,-39 -90,-60c-25,-20 -117,-86 -206,-147c-88,-61 -197,-138 -243,-172c-45,-33 -88,-61 -95,-61c-6,0 -39,-23 -71,-51c-33,-28 -75,-58 -93,-65c-18,-8 -40,-21 -50,-30c-15,-13 -73,-59 -175,-139l-25,-20l141,-211c78,-116 185,-265 238,-330c108,-134 119,-151 119,-191c0,-47 34,-88 136,-165c106,-79 143,-120 365,-399c215,-270 426,-525 494,-597l60,-64l70,52c39,29 85,59 103,67c31,13 37,12 77,-11c23,-14 95,-66 158,-115c64,-50 158,-118 209,-152c51,-34 125,-87 163,-118c97,-79 133,-103 144,-96c5,3 49,58 98,123c48,64 129,164 178,222c275,319 477,567 562,688c53,75 124,173 158,217c34,44 86,116 115,160c29,44 86,123 125,175c40,52 78,106 85,119c7,13 31,50 54,82c22,32 64,91 91,130c28,40 76,105 108,146c62,80 157,216 157,226c0,3 -129,119 -288,257l-287,252l-7,71c-4,40 -4,219 -1,400c5,293 8,327 22,327c9,0 50,-9 91,-21c118,-32 162,-39 365,-53l190,-13l82,-41c458,-231 885,-380 1336,-468l147,-28l80,79c44,44 80,84 80,90c0,6 14,24 31,41c27,25 113,134 201,252c15,20 34,44 43,53c8,9 15,21 15,27c0,7 9,17 20,24c11,7 20,20 20,29c0,8 11,26 25,39c14,13 25,28 25,33c0,5 16,27 35,48c19,22 35,44 35,49c0,6 4,10 10,10c13,0 52,-79 108,-219l47,-116l-1,-225c0,-245 -9,-410 -54,-975c-49,-608 -41,-574 -185,-804c-111,-176 -139,-250 -155,-406c-29,-281 -40,-350 -66,-400c-14,-27 -39,-85 -55,-127c-30,-78 -114,-223 -228,-398c-115,-174 -275,-390 -289,-390c-40,0 -253,37 -466,80c-132,27 -243,47 -248,44c-4,-3 -8,-15 -8,-28c0,-28 -18,-46 -46,-46c-12,0 -28,-7 -35,-16c-10,-12 -24,-15 -55,-10c-31,4 -44,2 -47,-8c-6,-16 -22,-322 -38,-731c-5,-154 -14,-323 -19,-375c-12,-118 -80,-686 -120,-995c-42,-328 -45,-362 -31,-379c7,-8 32,-18 56,-22c25,-3 50,-13 57,-22c9,-11 14,-77 18,-234c4,-178 8,-220 20,-228c21,-13 101,-19 415,-30c154,-6 352,-15 440,-20c88,-5 430,-19 760,-30c865,-28 1017,-37 1033,-57c9,-13 12,-91 12,-308l0,-292l-70,-208c-39,-114 -82,-230 -97,-257c-34,-63 -128,-166 -158,-174c-13,-3 -26,-12 -29,-19c-2,-7 -28,-18 -58,-25c-58,-14 -142,-53 -154,-71c-30,-50 -20,-167 29,-339l33,-115l60,-6c93,-10 292,-10 367,1c119,17 175,61 197,151c87,373 122,446 271,574c59,51 198,139 206,131c16,-15 22,-119 23,-361c2,-308 7,-368 32,-373c21,-4 25,19 33,178c15,293 48,614 71,694c8,27 14,85 14,129c0,75 -3,86 -60,211c-73,161 -102,265 -105,372c-1,75 -4,85 -32,118c-25,31 -30,44 -27,79c2,23 11,137 20,252c13,175 21,232 50,343c65,247 75,311 81,539c7,246 -3,379 -54,773c-40,309 -42,383 -26,785c13,314 25,438 59,630c42,230 54,225 173,-71c32,-82 96,-234 141,-339c217,-503 282,-583 518,-645c91,-24 160,-25 209,-5c40,17 238,212 350,346c109,130 321,474 492,798c51,96 124,224 162,285c70,110 321,473 408,589l46,62l81,0c102,1 124,17 169,119c89,204 184,332 491,662c132,140 165,158 304,158c52,1 127,-5 166,-13c88,-17 99,-12 153,71c47,71 81,170 81,232c-1,81 -58,166 -157,232c-68,45 -233,127 -289,144c-51,15 -76,4 -172,-78c-37,-32 -123,-101 -192,-154c-288,-219 -391,-271 -505,-254c-36,6 -45,11 -45,27c0,11 70,149 155,307c85,158 155,295 155,305c0,18 -17,22 -36,9c-6,-4 -80,-115 -164,-247c-167,-261 -216,-328 -331,-451c-104,-112 -111,-131 -117,-364l-4,-185l-45,-90c-118,-235 -103,-216 -542,-650c-567,-560 -602,-592 -611,-574c-4,8 -11,97 -14,199c-4,102 -11,247 -17,322c-7,100 -7,143 1,158c7,13 63,47 137,82c69,34 127,67 130,74c3,8 -4,29 -16,47c-28,46 -26,70 9,110c16,19 30,39 30,44c0,4 -24,55 -54,112c-30,56 -99,198 -152,314c-54,117 -136,288 -182,380l-84,168l-232,252c-419,456 -557,612 -563,637c-10,41 16,166 78,365c32,105 67,228 78,274c11,46 25,89 31,95c5,5 10,19 10,31c0,41 139,505 173,577c34,72 36,83 43,219c5,114 3,165 -10,243c-31,179 -45,209 -158,351c-57,70 -111,139 -120,154c-26,37 -23,128 7,236c29,104 31,167 9,221c-12,29 -15,62 -12,139c5,112 1,105 116,249c35,43 74,101 88,128c90,178 86,474 -10,689c-59,131 -105,198 -206,300c-157,158 -278,191 -559,153zm-4141,-3561c0,-4 -32,-64 -70,-134c-39,-71 -95,-179 -124,-241c-30,-62 -78,-159 -108,-215l-54,-103l-145,129c-79,70 -153,138 -163,150c-20,21 -20,22 0,41c42,42 300,197 524,314c125,66 140,72 140,59zm76,-28c5,-31 3,-115 -8,-239c-3,-25 3,-33 42,-56l45,-27l-2,-254c-3,-348 -11,-479 -29,-486c-16,-6 -24,0 -211,163c-136,119 -203,186 -203,204c0,4 14,48 31,96c31,87 308,634 321,634c4,0 10,-16 14,-35zm2804,-3480c16,-8 52,-20 79,-26c35,-7 58,-19 73,-39c13,-15 33,-33 46,-39c22,-12 22,-13 22,-244c-1,-254 -12,-423 -30,-441c-26,-26 -565,-15 -593,13c-14,14 5,85 89,339c81,243 109,307 160,365c19,20 34,44 34,52c0,34 70,46 120,20zm714,-47c3,-18 10,-78 16,-133c7,-55 25,-178 41,-274c16,-96 32,-217 35,-268l7,-93l-192,0c-178,0 -192,1 -211,20c-13,13 -20,33 -20,56c0,20 -7,59 -15,87c-8,29 -26,156 -39,282c-37,337 -37,325 -23,331c16,5 231,21 324,23l72,1l5,-32z" fill="#ffff00" id="svg_2"/>
  </g>
 </g>
</svg>